<?xml version="1.0" encoding="UTF-8" standalone="no"?>
<!DOCTYPE svg PUBLIC "-//W3C//DTD SVG 1.1//EN" "http://www.w3.org/Graphics/SVG/1.1/DTD/svg11.dtd">
<!-- Created with Vectornator (http://vectornator.io/) -->
<svg height="100%" stroke-miterlimit="10" style="fill-rule:nonzero;clip-rule:evenodd;stroke-linecap:round;stroke-linejoin:round;" version="1.1" viewBox="0 0 1024 1024" width="100%" xml:space="preserve" xmlns="http://www.w3.org/2000/svg" xmlns:vectornator="http://vectornator.io" xmlns:xlink="http://www.w3.org/1999/xlink">
<defs/>
<path d="M0 0L1024 0L1024 1024L0 1024L0 0Z" fill="#f8f4f7" fill-opacity="0" fill-rule="nonzero" opacity="1" stroke="none"/>
<g id="Слой-1" vectornator:layerName="Слой 1">
<g opacity="1" vectornator:layerName="Кривая 1">
<path d="M271.688 473.188C267.794 481.203 264.351 489.379 261.312 497.688C264.351 489.379 267.795 481.203 271.688 473.188ZM241.906 588.531C240.172 606.275 239.332 624.134 238.938 641.875C239.332 624.134 240.172 606.275 241.906 588.531Z" fill="#ebadd0" stroke="none"/>
</g>
<g opacity="1" vectornator:layerName="Кривая 2">
<path d="M486.312 319.875C486.261 319.874 486.219 319.917 486.219 319.969C486.197 330.076 485.384 340.131 483.844 350.094C484.127 348.181 484.583 346.294 484.812 344.375C485.783 336.267 486.225 328.129 486.406 319.969C486.407 319.917 486.364 319.876 486.312 319.875ZM483.844 350.094C483.545 352.111 483.171 354.117 482.812 356.125C483.19 354.119 483.532 352.109 483.844 350.094ZM482.812 356.125C482.294 358.886 481.77 361.634 481.125 364.375C479.104 372.965 476.477 381.43 473.281 389.656C452.346 443.542 407.921 486.124 358.125 513.875C349.412 518.731 340.486 523.189 331.375 527.25C320.226 532.219 308.832 536.615 297.219 540.375C285.049 544.315 272.633 547.53 260.062 549.906C248.651 552.063 237.055 553.536 225.438 553.844C218.068 554.039 210.599 553.79 203.281 552.656C210.188 553.757 217.251 554.137 224.219 554.094C235.463 554.023 246.678 552.879 257.781 551.156C269.634 549.317 281.393 546.829 292.969 543.688C361.112 525.193 426.412 482.887 460.719 419.781C466.974 408.275 472.163 396.151 476.188 383.688C479.096 374.68 481.15 365.444 482.812 356.125ZM203.281 552.656C200.373 552.206 197.524 551.502 194.688 550.75C197.521 551.509 200.376 552.193 203.281 552.656ZM194.688 550.75C193.912 550.542 193.112 550.42 192.344 550.188C193.114 550.419 193.91 550.544 194.688 550.75ZM192.344 550.188C188.852 549.138 185.429 547.847 182.125 546.219C185.435 547.857 188.845 549.129 192.344 550.188Z" fill="#ebadd0" stroke="none"/>
</g>
</g>
</svg>
