<?xml version="1.0" encoding="UTF-8" standalone="no"?>
<!DOCTYPE svg PUBLIC "-//W3C//DTD SVG 1.1//EN" "http://www.w3.org/Graphics/SVG/1.1/DTD/svg11.dtd">
<!-- Created with Vectornator (http://vectornator.io/) -->
<svg height="100%" stroke-miterlimit="10" style="fill-rule:nonzero;clip-rule:evenodd;stroke-linecap:round;stroke-linejoin:round;" version="1.1" viewBox="0 0 1024 1024" width="100%" xml:space="preserve" xmlns="http://www.w3.org/2000/svg" xmlns:vectornator="http://vectornator.io" xmlns:xlink="http://www.w3.org/1999/xlink">
<defs/>
<path d="M0 0L1024 0L1024 1024L0 1024L0 0Z" fill="#f8f4f7" fill-opacity="0" fill-rule="nonzero" opacity="1" stroke="none"/>
<g id="Слой-1" vectornator:layerName="Слой 1">
<g opacity="1" vectornator:layerName="Кривая 1">
<path d="M271.688 473.188C267.794 481.203 264.351 489.379 261.312 497.688C264.351 489.379 267.795 481.203 271.688 473.188ZM241.906 588.531C240.172 606.275 239.332 624.134 238.938 641.875C239.332 624.134 240.172 606.275 241.906 588.531Z" fill="#ebadd0" stroke="none"/>
</g>
<g opacity="1" vectornator:layerName="Кривая 2">
<path d="M443.344 318.906C432.101 319.057 420.873 320.26 409.781 322.062C397.942 323.986 386.209 326.588 374.656 329.812C306.647 348.793 241.667 391.557 207.812 454.906C201.64 466.457 196.529 478.602 192.594 491.094C189.721 500.213 187.693 509.572 186.094 519C186.605 516.145 187.136 513.272 187.781 510.438C189.741 501.833 192.301 493.374 195.438 485.125C215.987 431.091 260.122 388.2 309.719 360.094C318.397 355.176 327.293 350.626 336.375 346.5C347.489 341.451 358.851 336.999 370.438 333.156C382.579 329.129 394.978 325.809 407.531 323.344C418.927 321.106 430.479 319.547 442.094 319.156C453.145 318.785 464.488 319.44 475.125 322.531C464.878 319.526 454.01 318.763 443.344 318.906ZM475.125 322.531C478.671 323.562 482.143 324.875 485.5 326.5C482.148 324.871 478.664 323.569 475.125 322.531ZM186.094 519C185.761 520.861 185.465 522.725 185.188 524.594C185.453 522.721 185.777 520.865 186.094 519ZM185.188 524.594C184.909 526.56 184.472 528.496 184.25 530.469C183.337 538.583 182.966 546.745 182.844 554.906C182.843 554.958 182.886 555 182.938 555C182.989 555 183.031 554.958 183.031 554.906C182.981 544.739 183.7 534.625 185.188 524.594Z" fill="#ebadd0" stroke="none"/>
</g>
</g>
</svg>
