<?xml version="1.0" encoding="UTF-8" standalone="no"?>
<!DOCTYPE svg PUBLIC "-//W3C//DTD SVG 1.1//EN" "http://www.w3.org/Graphics/SVG/1.1/DTD/svg11.dtd">
<!-- Created with Vectornator (http://vectornator.io/) -->
<svg height="100%" stroke-miterlimit="10" style="fill-rule:nonzero;clip-rule:evenodd;stroke-linecap:round;stroke-linejoin:round;" version="1.1" viewBox="0 0 1024 1024" width="100%" xml:space="preserve" xmlns="http://www.w3.org/2000/svg" xmlns:vectornator="http://vectornator.io" xmlns:xlink="http://www.w3.org/1999/xlink">
<defs/>
<path d="M0 0L1024 0L1024 1024L0 1024L0 0Z" fill="#414141" fill-opacity="0" fill-rule="nonzero" opacity="1" stroke="none"/>
<g id="Слой-1" vectornator:layerName="Слой 1">
<g fill="#f8f4f7" opacity="1" stroke="none" vectornator:layerName="Текст 1">
<path d="M265.023 499.931L265.023 491.941L212.493 491.941L212.493 499.931C220.823 499.761 227.283 500.611 227.283 510.641C227.283 525.771 213.853 533.761 200.083 533.761C173.563 533.761 166.423 508.431 166.423 486.331C166.423 460.831 175.603 436.351 205.013 436.351C222.523 436.351 236.463 444.341 239.183 462.531L247.513 462.531L247.513 428.361L239.183 428.361C239.353 430.911 238.163 432.951 235.443 432.951C233.403 432.951 229.493 431.081 227.623 430.401C218.783 427.001 209.263 425.301 199.743 425.301C163.533 425.301 139.393 449.101 139.393 485.481C139.393 518.971 161.153 544.811 195.663 544.811C211.473 544.811 222.183 539.881 233.233 528.831L237.143 541.751L250.403 541.751L250.403 514.891C250.403 511.661 249.893 505.201 252.443 502.821C255.333 500.101 261.283 499.931 265.023 499.931Z"/>
<path d="M323.503 541.751L323.503 533.761C314.153 533.591 308.713 533.591 308.713 522.711L308.713 447.401C308.713 436.691 314.323 436.691 323.333 436.351L323.333 428.361L271.143 428.361L271.143 436.351C280.153 436.691 285.933 436.861 285.933 447.401L285.933 522.711C285.933 533.421 280.493 533.591 271.143 533.761L271.143 541.751L323.503 541.751Z"/>
<path d="M483.643 541.751L483.643 533.761C474.123 533.591 469.023 533.421 469.023 522.711L469.023 446.891C469.023 436.691 475.313 436.691 483.643 436.351L483.643 428.361L447.263 428.361L408.673 513.871L369.403 428.361L332.003 428.361L332.003 436.351C341.013 436.691 346.793 436.861 346.793 447.401L346.793 522.711C346.793 533.421 341.353 533.591 332.003 533.761L332.003 541.751L371.783 541.751L371.783 533.761C358.353 533.421 356.993 532.231 356.993 518.801C356.993 498.061 356.823 477.321 356.823 456.581L356.823 453.351C357.843 456.411 358.863 459.471 360.223 462.531L396.263 541.751L407.823 541.751L444.713 459.981C445.903 457.431 446.923 454.541 447.773 451.821C447.263 456.411 447.263 461.001 447.263 465.591L447.263 518.801C447.263 532.061 445.903 533.421 432.473 533.761L432.473 541.751L483.643 541.751Z"/>
<path d="M604.513 519.821L604.513 504.351L595.333 504.351L595.333 519.821C595.333 522.881 595.333 530.191 590.743 530.191C587.003 530.191 586.833 525.771 586.833 523.051L586.833 504.351C586.833 489.561 582.073 485.311 567.963 482.421C580.033 477.321 589.043 470.351 589.043 456.071C589.043 443.321 581.223 432.951 568.643 429.891C562.523 428.361 556.063 428.361 549.773 428.361L492.313 428.361L492.313 436.351C501.153 436.691 507.103 436.861 507.103 447.401L507.103 522.711C507.103 533.421 501.663 533.591 492.313 533.761L492.313 541.751L544.673 541.751L544.673 533.761C535.323 533.591 529.883 533.591 529.883 522.711L529.883 488.371L545.013 488.371C555.383 488.371 564.053 492.281 564.053 504.011L564.053 509.791L564.053 521.351C564.053 527.131 564.053 532.911 567.623 537.841C571.363 543.111 577.313 544.811 583.603 544.811C590.403 544.811 597.543 542.261 601.283 536.141C604.683 530.701 604.513 525.941 604.513 519.821ZM564.733 457.941C564.733 467.121 559.293 474.941 550.113 477.151C545.693 478.171 541.103 478.171 536.683 478.171L529.883 478.171L529.883 438.561L536.683 438.561C550.283 438.561 564.733 441.451 564.733 457.941Z"/>
<path d="M738.473 541.751L738.473 533.761C726.913 533.761 723.003 531.381 718.753 520.501L682.203 428.361L667.753 428.361L633.583 515.061C627.803 529.511 627.463 532.231 612.163 533.761L612.163 541.751L655.343 541.751L655.343 533.761C651.433 533.591 641.403 533.591 641.403 527.811C641.403 525.261 642.593 523.051 643.443 520.671L650.413 502.141L687.473 502.141L694.613 520.671C695.463 522.881 696.483 525.091 696.483 527.471C696.483 533.931 686.623 533.761 682.203 533.761L682.203 541.751L738.473 541.751ZM683.053 491.941L654.493 491.941L668.603 455.731L683.053 491.941Z"/>
<path d="M869.373 436.351L869.373 428.361L828.573 428.361L828.573 436.351C837.413 436.691 843.363 436.861 843.363 447.401L843.363 506.561L772.473 428.361L741.533 428.361L741.533 436.351C750.373 436.691 756.323 436.861 756.323 447.401L756.323 522.711C756.323 533.421 750.883 533.591 741.533 533.761L741.533 541.751L782.333 541.751L782.333 533.761C772.983 533.591 767.543 533.591 767.543 522.711L767.543 457.601L843.363 541.751L854.583 541.751L854.583 451.311C854.583 438.051 855.943 437.031 869.373 436.351Z"/>
</g>
</g>
<g id="Слой-2" vectornator:layerName="Слой 2">
<g fill="#f8f4f7" opacity="1" stroke="none" vectornator:layerName="Текст 1">
<path d="M546.366 330.884C546.365 337.684 539.914 349.234 527.012 365.532C516.811 378.231 507.309 388.68 498.509 396.879C498.507 407.779 501.257 413.229 506.757 413.23C512.257 413.231 520.057 407.582 530.159 396.283C530.559 395.783 530.959 395.533 531.359 395.533C531.859 395.533 532.109 395.883 532.109 396.583C532.109 396.983 531.959 397.383 531.658 397.783C528.158 402.382 524.158 406.382 519.657 409.781C513.957 414.181 508.906 416.38 504.506 416.38C497.006 416.379 493.257 410.229 493.258 397.929C493.259 389.529 497.411 378.229 505.712 364.03C512.513 352.431 519.765 342.382 527.465 333.882C532.966 327.883 537.566 324.883 541.266 324.884C542.466 324.884 543.616 325.559 544.716 326.909C545.816 328.259 546.366 329.584 546.366 330.884ZM539.916 331.484C539.916 329.584 539.266 328.634 537.966 328.633C535.066 328.633 531.516 331.433 527.315 337.032C522.514 343.532 517.063 352.681 510.962 364.481C504.261 377.38 500.26 387.029 498.959 393.429C504.459 388.63 511.86 379.831 521.162 367.032C530.763 353.633 536.564 343.933 538.565 337.934C539.465 335.134 539.916 332.984 539.916 331.484Z"/>
<path d="M575.309 395.688C575.309 396.188 575.009 396.888 574.408 397.787C570.008 404.887 565.857 409.437 561.957 411.436C560.157 412.336 558.357 412.786 556.557 412.786C550.457 412.785 547.407 408.485 547.408 399.885C547.408 398.485 547.509 396.985 547.709 395.385C541.007 407.284 535.057 413.233 529.857 413.233C526.757 413.232 525.207 411.532 525.207 408.132C525.208 402.932 527.709 396.657 532.709 389.308C537.71 381.958 542.561 377.484 547.261 375.884C548.961 375.185 550.611 374.835 552.211 374.835C555.811 374.835 558.411 376.086 560.011 378.586C560.311 379.086 560.46 379.436 560.46 379.636C560.46 379.736 560.11 379.886 559.41 380.086C558.71 380.286 558.21 380.636 557.91 381.136C555.51 385.035 554.309 390.885 554.308 398.685C554.308 405.885 555.857 409.485 558.957 409.486C561.157 409.486 564.282 407.061 568.333 402.212C572.384 397.362 574.559 394.937 574.859 394.937C575.159 394.938 575.309 395.188 575.309 395.688ZM553.26 379.935C552.86 379.835 552.41 379.785 551.91 379.785C547.91 379.785 543.76 382.334 539.46 387.434C533.359 394.833 530.308 400.883 530.308 405.583C530.307 407.683 531.007 408.733 532.407 408.733C534.607 408.733 537.458 406.433 540.958 401.834C545.859 395.634 549.96 388.335 553.26 379.935Z"/>
<path d="M614.909 395.542C614.909 395.942 614.809 396.342 614.609 396.742C611.308 401.941 605.758 405.291 597.958 406.79C597.357 409.79 595.832 412.19 593.382 413.99C590.932 415.789 588.156 416.689 585.056 416.689C580.456 416.688 576.207 414.963 572.307 411.512C568.407 408.062 566.458 404.087 566.458 399.587C566.459 396.687 567.259 395.237 568.859 395.237C569.859 395.237 570.909 395.937 572.009 397.337C573.609 395.737 576.084 392.013 579.435 386.163C582.785 380.313 585.561 376.139 587.761 373.639C591.262 369.639 594.812 367.64 598.412 367.64C599.812 367.64 601.237 368.09 602.687 368.991C604.137 369.891 604.861 370.991 604.861 372.291C604.861 373.091 603.711 373.491 601.411 373.49C599.111 373.49 597.011 374.215 595.111 375.665C593.211 377.114 592.261 378.939 592.26 381.139C592.26 381.939 592.41 382.789 592.71 383.689C594.01 386.99 595.259 390.24 596.459 393.44C597.759 397.34 598.408 400.74 598.408 403.64C604.308 402.741 609.258 399.791 613.259 394.792C613.559 394.492 613.809 394.342 614.009 394.342C614.609 394.342 614.909 394.742 614.909 395.542ZM591.808 402.589C591.808 400.389 590.959 396.289 589.259 390.289C587.56 384.689 586.86 381.089 587.16 379.489C581.86 387.888 577.259 394.438 573.358 399.137C579.458 402.138 585.608 403.789 591.808 404.089C591.808 403.589 591.808 403.089 591.808 402.589ZM591.057 407.389C582.757 407.488 576.008 405.738 570.808 402.137L570.358 402.587C573.057 409.187 577.307 412.488 583.107 412.488C587.007 412.489 589.657 410.789 591.057 407.389Z"/>
<path d="M644.609 396.295C644.609 396.495 644.509 396.795 644.309 397.195C641.808 401.095 638.058 404.694 633.057 407.994C627.757 411.493 622.907 413.243 618.507 413.242C612.207 413.242 609.057 409.291 609.058 401.391C609.059 396.191 611.309 390.491 615.81 384.292C620.611 377.692 625.561 374.393 630.661 374.394C631.661 374.394 632.536 374.844 633.286 375.744C634.036 376.644 634.411 377.594 634.411 378.594C634.41 381.694 632.06 385.444 627.359 389.843C623.159 393.743 619.309 396.342 615.809 397.642C615.108 400.142 614.758 402.242 614.758 403.942C614.757 408.042 616.607 410.092 620.307 410.092C623.807 410.093 627.757 408.643 632.158 405.744C635.958 403.244 639.208 400.394 641.909 397.195C642.609 396.195 643.309 395.695 644.009 395.695C644.409 395.695 644.609 395.895 644.609 396.295ZM629.91 380.393C629.911 379.193 629.311 378.593 628.111 378.593C626.611 378.593 624.41 380.893 621.51 385.493C619.009 389.392 617.459 392.442 616.859 394.642C619.459 393.542 622.159 391.593 624.959 388.793C628.26 385.593 629.91 382.793 629.91 380.393Z"/>
<path d="M689.909 394.65C689.909 395.45 689.609 396.3 689.009 397.2C681.207 409.599 673.457 415.798 665.757 415.797C660.157 415.797 657.357 412.546 657.358 406.046C657.358 399.846 659.459 393.297 663.66 386.397C663.06 386.597 662.41 386.697 661.71 386.697C660.11 386.697 658.56 386.197 657.06 385.196C655.26 384.096 654.36 382.846 654.36 381.446C653.26 383.946 651.21 387.496 648.209 392.095C644.508 397.895 642.058 400.795 640.858 400.795C640.458 400.795 640.258 400.595 640.258 400.195C640.258 399.795 640.508 399.245 641.008 398.545C644.909 393.245 648.86 386.396 652.861 377.996C652.661 377.096 652.561 375.996 652.561 374.696C652.561 372.396 653.012 369.746 653.912 366.746C654.912 362.946 656.262 361.046 657.962 361.047C659.062 361.047 660.012 361.947 660.812 363.747C661.512 365.147 661.862 366.497 661.862 367.797C661.861 370.297 659.811 373.947 655.711 378.746C656.61 381.846 658.36 383.397 660.96 383.397C662.76 383.397 664.51 382.422 666.21 380.472C667.911 378.523 669.111 377.548 669.811 377.548C670.711 377.548 671.511 377.923 672.211 378.673C672.91 379.423 673.26 380.298 673.26 381.298C673.26 381.198 671.51 384.548 668.009 391.348C664.508 398.147 662.758 403.397 662.757 407.097C662.757 410.597 664.407 412.347 667.707 412.348C670.507 412.348 673.707 410.748 677.307 407.549C679.608 405.449 682.308 402.449 685.408 398.55C687.909 395.35 689.209 393.75 689.309 393.75C689.709 393.75 689.909 394.05 689.909 394.65Z"/>
</g>
<g fill="#f8f4f7" opacity="1" stroke="none" vectornator:layerName="Текст 2">
<path d="M166.74 595.261C170.76 595.261 173.82 593.101 174.93 588.811L173.46 588.811C172.35 592.291 169.89 593.881 166.8 593.881C162.12 593.881 159.45 590.131 159.45 584.521C159.45 579.001 162.09 575.161 166.8 575.161C169.8 575.161 172.29 576.691 173.19 579.811L174.6 579.811C173.67 575.791 170.58 573.781 166.74 573.781C161.22 573.781 157.95 578.221 157.95 584.521C157.95 590.941 161.22 595.261 166.74 595.261Z"/>
<path d="M202.72 574.021L189.61 574.021L189.61 575.401L195.43 575.401L195.43 595.021L196.87 595.021L196.87 575.401L202.72 575.401L202.72 574.021Z"/>
<path d="M230 574.021L224.69 586.861L224.63 586.861L218.63 574.021L216.98 574.021L216.98 574.081L224 588.571L222.68 591.601C222.05 593.071 221.42 593.971 219.92 593.971C219.38 593.971 218.9 593.911 218.21 593.521L217.76 594.721C218.63 595.141 219.26 595.261 220.07 595.261C222.26 595.261 223.13 594.091 224.06 591.931L231.59 574.081L231.59 574.021L230 574.021Z"/>
<path d="M259.65 593.671L259.65 574.021L249.21 574.021L247.68 589.951C247.5 591.871 247.23 592.891 246.33 593.671L244.59 593.671L244.59 599.191L245.94 599.191L245.94 595.021L260.31 595.021L260.31 599.191L261.69 599.191L261.69 593.671L259.65 593.671ZM250.47 575.371L258.24 575.371L258.24 593.701L247.95 593.701C248.79 592.681 249 591.331 249.12 589.951L250.47 575.371Z"/>
<path d="M291.82 573.991L279.85 591.571L279.88 585.841L279.88 573.991L278.44 573.991L278.44 595.021L279.04 595.021L291.04 577.321L290.98 582.181L290.98 595.021L292.42 595.021L292.42 573.991L291.82 573.991Z"/>
<path d="M315.71 574.021C312.14 574.021 309.59 576.661 309.59 580.531C309.59 583.831 311.33 586.321 314.33 586.861L309.08 594.961L309.08 595.021L310.7 595.021L315.86 586.981L321.11 586.981L321.11 595.021L322.55 595.021L322.55 574.021L315.71 574.021ZM311.06 580.501C311.06 577.381 313.16 575.371 315.74 575.371L321.14 575.371L321.14 585.691L315.74 585.691C313.04 585.691 311.06 583.711 311.06 580.501Z"/>
<path d="M363.64 574.021L362.02 590.281C361.78 592.471 361.12 593.881 359.44 593.881C358.96 593.881 358.69 593.851 358.27 593.761L358.27 594.991C358.69 595.111 359.17 595.141 359.59 595.141C362.08 595.141 363.13 593.341 363.43 590.191L364.9 575.401L372.43 575.401L372.43 595.021L373.87 595.021L373.87 574.021L363.64 574.021Z"/>
<path d="M399.17 573.961L398.57 573.961L390.14 594.961L390.14 595.021L391.64 595.021L393.95 589.201L403.73 589.201L406.01 595.021L407.54 595.021L407.54 594.961L399.17 573.961ZM398.87 576.541L403.22 587.851L394.46 587.851L398.87 576.541Z"/>
<path d="M431.58 583.771C433.26 583.021 434.7 581.581 434.7 579.181C434.7 575.731 432.12 573.781 428.61 573.781C425.64 573.781 422.76 575.251 422.52 579.511L423.9 579.511C424.11 576.121 426.39 575.071 428.55 575.071C431.19 575.071 433.23 576.511 433.23 579.211C433.23 582.001 431.07 583.171 429.03 583.171L427.02 583.171L427.02 584.461L429.06 584.461C431.64 584.461 434.07 585.991 434.07 589.171C434.07 592.231 432.06 593.941 428.85 593.941C426.03 593.941 423.87 592.231 423.63 589.051L422.19 589.051C422.46 593.071 425.1 595.261 428.82 595.261C432.96 595.261 435.57 593.071 435.57 589.171C435.57 586.261 433.89 584.461 431.58 583.771Z"/>
<path d="M454.06 593.641L454.06 584.791L462.61 584.791L462.61 583.441L454.06 583.441L454.06 575.401L462.97 575.401L462.97 574.021L452.62 574.021L452.62 595.021L463.09 595.021L463.09 593.641L454.06 593.641Z"/>
<path d="M486.8 574.021L480.5 574.021L480.5 595.021L481.94 595.021L481.94 587.431L486.8 587.431C491.06 587.431 493.67 584.851 493.67 580.711C493.67 576.601 491.06 574.021 486.8 574.021ZM486.8 586.081L481.94 586.081L481.94 575.371L486.8 575.371C490.22 575.371 492.2 577.351 492.2 580.741C492.2 584.101 490.22 586.081 486.8 586.081Z"/>
<path d="M522.84 574.021L522.84 583.381L511.8 583.381L511.8 574.021L510.36 574.021L510.36 595.021L511.8 595.021L511.8 584.791L522.84 584.791L522.84 595.021L524.28 595.021L524.28 574.021L522.84 574.021Z"/>
<path d="M550.54 595.261C556.06 595.261 559.6 591.061 559.6 584.521C559.6 577.981 556.06 573.781 550.54 573.781C544.99 573.781 541.45 577.981 541.45 584.521C541.45 591.061 544.99 595.261 550.54 595.261ZM550.54 593.881C545.89 593.881 542.95 590.281 542.95 584.521C542.95 578.761 545.86 575.161 550.54 575.161C555.19 575.161 558.1 578.761 558.1 584.521C558.1 590.281 555.19 593.881 550.54 593.881Z"/>
<path d="M584.06 572.521C586.07 572.521 587.96 571.201 588.11 568.741L586.73 568.741C586.49 570.421 585.38 571.261 584.06 571.261C582.56 571.261 581.54 570.451 581.42 568.741L580.04 568.741C580.13 571.231 582.05 572.521 584.06 572.521ZM590.15 573.991L578.18 591.571L578.21 585.841L578.21 573.991L576.77 573.991L576.77 595.021L577.37 595.021L589.37 577.321L589.31 582.181L589.31 595.021L590.75 595.021L590.75 573.991L590.15 573.991Z"/>
<path d="M635.65 573.781C632.02 573.781 629.11 575.491 627.94 579.811L629.35 579.811C630.43 576.511 632.59 575.131 635.59 575.131C640 575.131 642.85 578.311 643.09 583.741L634.78 583.741L634.78 585.061L643.12 585.061C642.91 590.761 639.88 593.881 635.62 593.881C632.5 593.881 630.19 592.351 629.08 588.781L627.64 588.781C628.84 593.341 631.84 595.261 635.59 595.261C640.9 595.261 644.62 591.271 644.62 584.521C644.62 577.771 640.87 573.781 635.65 573.781Z"/>
<path d="M661.82 595.021L663.26 595.021L663.26 575.431L673.79 575.431L673.79 595.021L675.23 595.021L675.23 574.021L661.82 574.021L661.82 595.021Z"/>
<path d="M706.89 573.991L694.92 591.571L694.95 585.841L694.95 573.991L693.51 573.991L693.51 595.021L694.11 595.021L706.11 577.321L706.05 582.181L706.05 595.021L707.49 595.021L707.49 573.991L706.89 573.991Z"/>
<path d="M728.59 574.021L726.97 590.281C726.73 592.471 726.07 593.881 724.39 593.881C723.91 593.881 723.64 593.851 723.22 593.761L723.22 594.991C723.64 595.111 724.12 595.141 724.54 595.141C727.03 595.141 728.08 593.341 728.38 590.191L729.85 575.401L737.38 575.401L737.38 595.021L738.82 595.021L738.82 574.021L728.59 574.021Z"/>
<path d="M762.11 574.021C758.54 574.021 755.99 576.661 755.99 580.531C755.99 583.831 757.73 586.321 760.73 586.861L755.48 594.961L755.48 595.021L757.1 595.021L762.26 586.981L767.51 586.981L767.51 595.021L768.95 595.021L768.95 574.021L762.11 574.021ZM757.46 580.501C757.46 577.381 759.56 575.371 762.14 575.371L767.54 575.371L767.54 585.691L762.14 585.691C759.44 585.691 757.46 583.711 757.46 580.501Z"/>
<path d="M800.19 593.611L800.19 574.021L798.75 574.021L798.75 593.611L788.7 593.611L788.7 574.021L787.26 574.021L787.26 595.021L800.91 595.021L800.91 599.191L802.26 599.191L802.26 593.611L800.19 593.611Z"/>
<path d="M832.42 573.991L820.45 591.571L820.48 585.841L820.48 573.991L819.04 573.991L819.04 595.021L819.64 595.021L831.64 577.321L831.58 582.181L831.58 595.021L833.02 595.021L833.02 573.991L832.42 573.991Z"/>
<path d="M864.68 573.991L852.71 591.571L852.74 585.841L852.74 573.991L851.3 573.991L851.3 595.021L851.9 595.021L863.9 577.321L863.84 582.181L863.84 595.021L865.28 595.021L865.28 573.991L864.68 573.991Z"/>
</g>
</g>
</svg>
